<svg width="77" height="50" viewBox="0 0 77 50" fill="none" xmlns="http://www.w3.org/2000/svg">
<rect width="77" height="50" rx="10" fill="#E97447"/>
<path d="M58.4194 20.0737L39.6694 10.0737C39.4849 9.97545 39.2656 9.97545 39.0812 10.0737L20.3312 20.0737C20.1269 20.1825 20 20.3943 20 20.625C20 20.8558 20.1269 21.0675 20.3306 21.1763L25.625 24V31.875H26.875V24.6671L28.75 25.6671V29.464C27.6744 29.7433 26.875 30.7134 26.875 31.8753C26.875 32.4464 27.0751 32.9671 27.3987 33.3889C27.0575 34.5558 26.875 35.7589 26.875 36.9766V38.7503C26.875 38.9872 27.0086 39.2034 27.2207 39.3097L27.9113 39.6554C28.3638 39.8808 28.8694 40.0003 29.375 40.0003C29.8806 40.0003 30.3861 39.8808 30.8387 39.6546L31.5293 39.3089C31.7413 39.2034 31.875 38.9872 31.875 38.7503V36.9766C31.875 35.7589 31.6925 34.5558 31.3513 33.3889C31.6749 32.967 31.875 32.4464 31.875 31.8753C31.875 30.7134 31.0756 29.7433 30 29.464V26.334L39.0807 31.1772C39.173 31.226 39.2738 31.2503 39.375 31.2503C39.4763 31.2503 39.5771 31.226 39.6694 31.1772L51.8751 24.6671V31.5664C48.3988 34.1858 44.1051 35.6253 39.7494 35.6253H39.0013C36.8557 35.6253 34.7346 35.2846 32.6958 34.6127L32.3052 35.8002C34.4687 36.5134 36.7224 36.8753 39.0005 36.8753H39.7486C44.4824 36.8753 49.1464 35.2746 52.8836 32.3683C53.0356 32.2503 53.1249 32.0683 53.1249 31.8753V24.0003L58.4193 21.1766C58.623 21.0678 58.7499 20.856 58.7499 20.6253C58.7499 20.3945 58.623 20.1827 58.4193 20.0739L58.4194 20.0737ZM30.6251 38.3637L30.2794 38.5361C29.72 38.8154 29.0294 38.8154 28.47 38.5361L28.1251 38.3637V36.9761C28.1251 36.0367 28.2395 35.1061 28.4652 34.1974C28.7476 34.3087 29.0531 34.3748 29.3751 34.3748C29.697 34.3748 30.0026 34.3087 30.2849 34.1974C30.5107 35.1062 30.625 36.0367 30.625 36.9761L30.6251 38.3637ZM30.6251 31.8748C30.6251 32.5643 30.0645 33.1248 29.3751 33.1248C28.6856 33.1248 28.1251 32.5643 28.1251 31.8748C28.1251 31.1854 28.6856 30.6248 29.3751 30.6248C30.0645 30.6248 30.6251 31.1854 30.6251 31.8748ZM39.3751 29.9161L30.4301 25.1454L38.1729 21.016C38.5287 21.1611 38.9338 21.2498 39.3749 21.2498C40.7767 21.2498 41.8749 20.4262 41.8749 19.3748C41.8749 18.3235 40.7767 17.4998 39.3749 17.4998C37.9732 17.4998 36.8749 18.3235 36.8749 19.3748C36.8749 19.6605 36.9617 19.9267 37.1082 20.1673L29.1018 24.4373L21.9532 20.6248L39.3753 11.3327L56.7975 20.6248L39.3751 29.9161ZM38.1251 19.3747C38.1251 19.1196 38.612 18.7497 39.3751 18.7497C40.1382 18.7497 40.6251 19.1196 40.6251 19.3747C40.6251 19.6297 40.1382 19.9997 39.3751 19.9997C38.612 19.9997 38.1251 19.6297 38.1251 19.3747Z" fill="white"/>
</svg>
