<?xml version="1.0" encoding="UTF-8"?>
<!DOCTYPE svg PUBLIC "-//W3C//DTD SVG 1.1//EN" "http://www.w3.org/Graphics/SVG/1.1/DTD/svg11.dtd">
<!-- Creator: CorelDRAW 2021 (64 Bit) -->
<svg xmlns="http://www.w3.org/2000/svg" xml:space="preserve" width="23.9448mm" height="9.0055mm" version="1.1" style="shape-rendering:geometricPrecision; text-rendering:geometricPrecision; image-rendering:optimizeQuality; fill-rule:evenodd; clip-rule:evenodd"
viewBox="0 0 677.19 254.69"
 xmlns:xlink="http://www.w3.org/1999/xlink"
 xmlns:xodm="http://www.corel.com/coreldraw/odm/2003">
 <defs>
  <style type="text/css">
   <![CDATA[
    .fil3 {fill:#1A1A1A}
    .fil2 {fill:red}
    .fil1 {fill:white}
    .fil0 {fill:white;fill-rule:nonzero}
    .fil4 {fill:url(#id1)}
   ]]>
  </style>
    <clipPath id="id0">
     <path d="M8.3 8.44l668.89 0 0 246.24 -668.89 0 0 -246.24z"/>
    </clipPath>
  <linearGradient id="id1" gradientUnits="userSpaceOnUse" x1="480.71" y1="104.27" x2="548.22" y2="151.38">
   <stop offset="0" style="stop-opacity:1; stop-color:blue"/>
   <stop offset="1" style="stop-opacity:1; stop-color:#190096"/>
  </linearGradient>
 </defs>
 <g id="Camada_x0020_1">
  <metadata id="CorelCorpID_0Corel-Layer"/>
  <g id="_2522793927920">
   <g style="clip-path:url(#id0)">
    <image x="8.3" y="8.44" width="668.89" height="246.24" xlink:href="logo-ma-brandao-2023_Images\logo-ma-brandao-2023_ImgID1.png"/>
   </g>
  </g>
  <g id="_2522793928016">
   <g>
    <path class="fil0" d="M65.25 41.61l14.37 0c16.9,0 20.98,4.86 20.98,10.88 0,7.19 -4.66,15.34 -19.04,15.34l-21.94 0 5.63 -26.22zm-11.85 55.16l19.42 0c14.37,0 20.39,4.47 20.39,11.26 0,10.88 -9.52,15.35 -20.59,15.35l-24.86 0 5.63 -26.6zm111.06 -13.37l10.74 0c8.97,0 13.76,2.9 13.76,9.34 0,11.49 -8.21,13.76 -14.02,13.76l-15.4 0 4.92 -23.11zm-94.36 70.46c25.87,0 46.34,-6.18 57.05,-19.87l-4.24 19.87 26.52 0 5.43 -25.38 13.89 0 5.31 25.38 17.96 0 10.83 0 16.45 0 7.07 -11.99 36.24 0 1.77 11.99 25.43 0 2.35 0 24.04 0 11.24 -52.02 25.26 52.02 24.75 0 20.08 -93.57 -26.39 0 -10.23 46.72 -21.47 -46.72 -29.68 0 -18.67 87.53 -15.48 -88.16 -27.15 0 -49.16 82.05 -4.78 -16.38c15.65,-6.06 22.35,-20.46 22.35,-36.12 0,-15.03 -8.08,-28.91 -30.94,-28.91l-43.06 0 -8.48 39.77c-2.86,-10.26 -11.86,-16.5 -25.06,-20.59 21.17,-3.5 35.54,-16.7 35.54,-39.43 0,-21.36 -19.62,-30.1 -51.27,-30.1l-62.92 0 -30.69 143.91 70.11 0zm168.9 -33.71l16.29 -27.78 4.17 27.78 -20.45 0zm328.06 -50.83l-0.08 0.02c-2.55,0.54 -5.13,0.74 -7.9,0.74 -2.38,0 -4.61,-0.72 -6.74,-1.78 -2.03,-1.01 -3.93,-2.3 -5.76,-3.56 -2.46,-1.68 -4.83,-3.31 -7.28,-4.13l7.3 41.58c2.51,-15.03 10.27,-25.81 20.46,-32.87zm-141.87 15.73l-9.6 45.08 9.6 0c17.68,0 28.41,-8.21 28.41,-27.4 0,-10.61 -7.07,-17.68 -24.75,-17.68l-3.66 0zm168.02 46.34c15.28,0 25,-11.49 25,-28.03 0,-9.85 -5.93,-19.45 -19.45,-19.45 -14.9,0 -25.13,12.62 -25.13,27.65 0,9.97 5.81,19.82 19.57,19.82zm-67.29 -70.89c1.64,-1.16 3.28,-2.09 4.94,-2.73 1.72,-0.66 3.44,-1.02 5.16,-1.02 4.67,0 8.43,2.57 12.4,5.28 1.75,1.2 3.56,2.43 5.37,3.33 1.71,0.85 3.48,1.43 5.29,1.43 2.58,0 4.94,-0.18 7.22,-0.66 2.27,-0.49 4.48,-1.28 6.75,-2.49 2.21,-1.18 4.53,-2.79 7.07,-4.92 2.25,-1.89 4.65,-4.18 7.28,-6.95l-12.9 -11.54c-0.93,0.98 -1.83,1.86 -2.7,2.66 -1.22,1.11 -2.36,2.02 -3.49,2.77 -1.49,0.98 -2.95,1.67 -4.47,2.12 -1.52,0.45 -3.08,0.66 -4.77,0.66 -3.52,0 -6.54,-2.09 -10.03,-4.51l-0.02 -0.01c-3.65,-2.53 -7.98,-5.53 -13.01,-5.53 -2.32,0 -4.74,0.39 -7.22,1.15 -2.54,0.78 -5.16,1.97 -7.83,3.52 -0.7,0.41 -1.38,0.83 -2.04,1.26 -0.49,0.31 -0.97,0.64 -1.47,0.99l2.97 19.88 0.64 -0.63c1.66,-1.6 3.57,-3.15 4.85,-4.06zm-9.63 -0.83l-2.37 -15.85c0.26,-0.18 0.83,-0.54 1.03,-0.74 0.72,-0.52 1.45,-1.02 2.19,-1.5 0.75,-0.49 1.48,-0.94 2.19,-1.35 2.88,-1.68 5.72,-2.95 8.5,-3.82 2.81,-0.87 5.55,-1.31 8.18,-1.31 6.04,0 10.85,3.33 14.88,6.13l0.02 0.01c3.03,2.1 5.64,3.91 8.16,3.91 1.39,0 2.65,-0.16 3.84,-0.51 1.2,-0.35 2.38,-0.91 3.6,-1.72 0.99,-0.64 2,-1.45 3.08,-2.44 1.09,-0.99 2.27,-2.19 3.59,-3.63l1.09 -1.18 17.79 15.9 -1.13 1.22c-3.19,3.43 -6.06,6.21 -8.72,8.44 -0.49,0.42 -0.98,0.81 -1.46,1.19 7.1,-2.47 14.66,-3.64 22.05,-3.64 22.98,0 43.69,14.39 43.69,42.55 0,38.39 -27.65,54.05 -56.32,54.05 -15.06,0 -29.17,-5.72 -37.3,-17.39l2.79 15.87 -27.78 0 -1.77 -11.99 -36.24 0 -7.07 11.99 -27.27 0 6.95 -11.61c-11.86,8.62 -27.58,11.61 -41.84,11.61l-36.75 0 19.96 -93.57 27.15 0c29.55,0 50.39,13 50.39,40.66 0,4.04 -0.32,7.79 -0.91,11.28l31.5 -52.57 4.32 0zm-14.15 60.49l20.46 0 -4.17 -27.78 -16.29 27.78z"/>
    <path class="fil1" d="M151.14 44.9l5.22 -24.08 3.63 24.08 5.5 0 13.97 -24.08 -5.12 24.08 7.55 0 7.36 -34.51 -10.3 0 -13.74 23.2 -3.44 -23.2 -10.25 0 -7.31 34.51 6.94 0zm59.16 -5.63l0.88 5.63 7.87 0 -5.96 -34.75 -7.68 0 -20.68 34.75 7.87 0 3.26 -5.63 14.44 0zm-10.71 -6.34l7.73 -13.32 2.01 13.32 -9.73 0zm46.02 0.61c5.96,-1.73 9.27,-6.66 9.27,-13.04 0,-5.54 -3.44,-10.11 -11.6,-10.11l-13.74 0 -7.36 34.51 7.59 0 2.33 -10.71 6.1 0 3.03 10.71 8.2 0 -3.82 -11.36zm-9.92 -16.49l4.98 0c4.24,0 6.24,1.54 6.24,4.38 0,5.03 -3.35,6.34 -6.56,6.34l-6.89 0 2.23 -10.72zm40.67 22.22l0.89 5.63 7.87 0 -5.96 -34.75 -7.68 0 -20.68 34.75 7.87 0 3.26 -5.63 14.44 0zm-10.71 -6.34l7.73 -13.32 2 13.32 -9.73 0zm30.14 11.97l4.94 -23.1 10.66 23.1 7.08 0 7.41 -34.51 -7.55 0 -4.56 21.29 -9.5 -21.29 -8.66 0 -7.36 34.51 7.55 0zm36.43 0l2.93 -13.88 14.81 0 -2.93 13.88 7.73 0 7.36 -34.51 -7.73 0 -2.89 13.28 -14.77 0 2.84 -13.28 -7.78 0 -7.36 34.51 7.78 0zm51.29 -5.63l0.89 5.63 7.87 0 -5.96 -34.75 -7.68 0 -20.68 34.75 7.87 0 3.26 -5.63 14.44 0zm-10.71 -6.34l7.73 -13.32 2 13.32 -9.73 0zm3.31 -24.22c1.49,-1.63 3.03,-2.89 4.52,-2.89 2.05,0 3.63,2.79 6.34,2.79 2.79,0 4.98,-0.98 8.34,-4.56l-4.15 -3.82c-1.63,1.82 -2.75,2.57 -4.14,2.57 -1.68,0 -3.26,-2.8 -6.34,-2.8 -2.84,0 -5.82,1.96 -8.67,4.98l4.1 3.73zm36.1 36.75c10.01,0 20.31,-6.24 20.31,-20.35 0,-9.74 -6.89,-15.28 -15.37,-15.28 -9.69,0 -20.5,6.34 -20.45,20.45 0,9.78 6.99,15.18 15.51,15.18zm0.75 -6.94c-5.54,0 -8.29,-3.96 -8.29,-8.66 0,-7.69 5.26,-12.86 11.5,-12.86 5.5,0 8.29,3.96 8.29,8.62 0,8.06 -5.12,12.9 -11.5,12.9zm38.93 6.77c5.28,0 8.77,-2.64 11.34,-6.2l-2.6 -1.83c-1.94,2.61 -4.44,4.86 -8.56,4.86 -4.44,0 -6.73,-3.03 -6.73,-7.5 0,-8.66 5.1,-13.03 10.28,-13.03 3.56,0 5.74,2.01 6.83,4.37l3.06 -1.52c-1.51,-3.35 -4.79,-6.09 -9.79,-6.09 -6.79,0 -13.87,5.7 -13.87,16.37 0,6.27 3.63,10.56 10.03,10.56zm24.36 0.04c6.94,0 14.82,-5.18 14.82,-15.85 0,-6.65 -4.43,-11.09 -10.77,-11.09 -6.9,0 -14.86,5.21 -14.82,15.88 0,6.65 4.43,11.06 10.77,11.06zm0.14 -3.2c-4.72,0 -7.4,-3.38 -7.4,-7.99 0,-8.1 5.56,-12.53 11.09,-12.53 4.75,0 7.47,3.45 7.47,8.03 0,8.2 -5.56,12.5 -11.16,12.5zm18.38 2.78l4.51 -21.02 3.84 21.02 2.96 0 12.78 -21.02 -4.47 21.02 3.38 0 5.53 -26.09 -4.61 0 -13.17 21.62 -3.87 -21.62 -4.47 0 -5.53 26.09 3.14 0z"/>
   </g>
   <g>
    <path class="fil2" d="M505.99 159.35c-201.55,72.25 -326.08,66.58 -393.18,2.82 82.62,79.56 232.82,76.09 422.49,24.12l-29.31 -26.95z"/>
    <path class="fil3" d="M488.3 142.79c-198.52,113.23 -328.32,67.22 -375.49,19.38 99.52,62.8 244.24,30.33 347.21,-45.48l28.28 26.1z"/>
    <path class="fil0" d="M460.71 115.81l0.59 3.17c-53.99,39.59 -120.51,68.14 -184.81,76.56 -58.41,7.65 -113.78,-0.76 -164.54,-34.05 51.17,29.38 106.86,37.56 164.1,30.06 64.24,-8.41 129.53,-36.17 183.38,-75.82 0.4,-0.3 0.92,-0.25 1.28,0.07z"/>
    <path class="fil1" d="M488.3 142.79c-219.86,101.01 -331.82,64.18 -375.49,19.38 53.95,53.52 133.75,63.84 225.93,51.7 41.81,-5.51 89.26,-14.73 129.43,-27.47l20.13 -43.61z"/>
    <path class="fil4" d="M460.02 116.69c0.7,1.26 5.53,5.26 6.93,6.61l21.35 19.49 -20.35 42.52c1.18,-0.49 3.63,-2.25 4.86,-3.13 1.64,-1.18 2.94,-1.99 4.7,-3.26l28.47 -19.57 24.75 22.7c1.1,1.06 2.52,2.5 3.74,3.36l-4.86 -42.39 37.87 -26.24 -40.93 -0.14 -4.98 -42.42c-6.4,12.43 -12.42,25.45 -18.4,37.96 -2.84,5.93 -1.48,4.47 -7.99,4.47 -10.35,-0 -25.88,-0.45 -35.16,0.06z"/>
    <path class="fil0" d="M462.45 117.74c0.96,0.92 2.21,2.02 3.27,2.95 0.81,0.71 1.51,1.33 1.94,1.74l21.32 19.47c0.39,0.35 0.48,0.95 0.26,1.41l-18.7 39.08c0.65,-0.45 1.25,-0.88 1.68,-1.19 0.83,-0.6 1.58,-1.11 2.34,-1.62 0.74,-0.5 1.5,-1.02 2.36,-1.64l28.5 -19.58c0.4,-0.27 0.91,-0.22 1.25,0.09 8.35,7.66 17.16,15.33 25.27,23.21 0.36,0.36 0.76,0.74 1.15,1.11l-4.55 -39.64c-0.05,-0.49 0.18,-0.95 0.57,-1.17l34.74 -24.07 -37.3 -0.13c-0.55,0 -0.99,-0.45 -1.05,-1.02l-4.57 -38.92c-4.31,8.52 -8.44,17.23 -12.52,25.82l-4.99 10.51c-0.93,2 -1.36,2.91 -2.27,3.42 -0.77,0.43 -1.54,0.38 -2.95,0.3 -0.74,-0.04 -1.69,-0.1 -3.02,-0.1 -2.76,0 -6.61,-0.05 -10.61,-0.09 -7.61,-0.09 -15.86,-0.18 -22.12,0.04zm1.93 4.74c-2.02,-1.78 -4.68,-4.13 -5.27,-5.19 -0.09,-0.16 -0.14,-0.35 -0.15,-0.55 -0.03,-0.64 0.43,-1.18 1.01,-1.21 6.46,-0.36 15.95,-0.25 24.62,-0.14 3.6,0.04 7.04,0.08 10.59,0.08 1.29,0 2.33,0.06 3.13,0.11 1.04,0.06 1.61,0.09 1.86,-0.05 0.3,-0.17 0.63,-0.87 1.35,-2.41l0.71 -1.51c1.69,-3.54 2.99,-6.28 4.29,-9.02 4.59,-9.69 9.26,-19.53 14.12,-28.97 0.16,-0.31 0.45,-0.53 0.79,-0.58 0.58,-0.08 1.11,0.37 1.19,1l4.86 41.42 39.99 0.14c0.35,0 0.69,0.19 0.89,0.53 0.32,0.54 0.17,1.25 -0.32,1.59l-37.3 25.85 4.78 41.68c0.03,0.26 -0.02,0.53 -0.16,0.76 -0.32,0.54 -0.98,0.7 -1.47,0.35 -1.1,-0.77 -2.33,-1.97 -3.37,-2.98 -7.89,-7.68 -16.5,-15.16 -24.63,-22.62l-27.79 19.11c-0.89,0.64 -1.66,1.16 -2.42,1.67 -0.74,0.5 -1.48,1 -2.29,1.58 -0.63,0.46 -1.58,1.14 -2.48,1.74 -0.96,0.64 -1.93,1.24 -2.59,1.51 -0.27,0.11 -0.59,0.1 -0.87,-0.06 -0.52,-0.29 -0.73,-1 -0.46,-1.56l19.96 -41.7 -20.71 -18.91c-0.38,-0.37 -1.08,-0.98 -1.87,-1.68z"/>
   </g>
  </g>
 </g>
</svg>
